<svg width="17" height="40" viewBox="0 0 17 40" fill="none" xmlns="http://www.w3.org/2000/svg">
<path d="M4.74519 34.901C3.91868 31.8872 4.96079 29.8434 6.64974 27.7303C8.12307 25.929 9.81201 24.3009 11.4291 22.5688C12.3634 21.5988 13.3337 20.6635 14.1602 19.6243C15.7413 17.6498 16.1366 15.3981 15.346 13.0079C14.6992 11.0333 13.6571 9.30127 11.8603 7.77706C11.8962 11.6915 9.66828 14.4282 7.61999 17.2687C6.21852 19.174 4.74518 21.0446 3.52339 23.0538C1.97818 25.5133 1.2595 28.2153 2.01414 31.1251C2.44536 32.684 3.19998 33.6886 4.74519 34.901Z" fill="white"/>
<path d="M4.24104 12.3495C3.84575 12.3495 3.41455 12.3149 3.01926 12.1763C2.19276 11.9338 1.50999 11.4835 0.970964 10.8253C0.683484 10.4789 0.467865 10.0979 0.28819 9.68217C0.0725804 9.09327 -0.0711421 8.46974 0.0366629 7.8462C0.108533 7.46515 0.216325 7.0841 0.360065 6.70305C0.503805 6.322 0.683488 5.94094 0.863163 5.59453C1.11471 5.07491 1.40218 4.58994 1.68966 4.07033C2.04901 3.44679 2.4443 2.78861 2.83959 2.16507C3.30674 1.43761 3.77388 0.744783 4.24104 0.0519616C4.27697 -0.0173205 4.34885 -0.0173205 4.38479 0.0519616C4.81601 0.675501 5.21129 1.29904 5.64251 1.92258C6.0378 2.54612 6.46901 3.2043 6.82836 3.86248C7.15178 4.41673 7.43926 4.97099 7.72674 5.55989C7.94235 6.01022 8.15796 6.46055 8.33764 6.91089C8.55325 7.49978 8.69699 8.08869 8.58919 8.71223C8.51732 9.30112 8.30169 9.85538 8.01421 10.3404C7.6908 10.86 7.29551 11.2757 6.75649 11.6221C6.43307 11.8299 6.10966 12.0031 5.75031 12.107C5.24722 12.2803 4.78006 12.3842 4.24104 12.3495Z" fill="white"/>
<path d="M12.6152 39.9934C12.2199 39.9934 11.7887 39.9587 11.3934 39.8202C10.5669 39.5777 9.88414 39.1273 9.34512 38.4692C9.05764 38.1228 8.84204 37.7417 8.66237 37.326C8.44676 36.7371 8.30301 36.1136 8.41082 35.49C8.48269 35.109 8.59048 34.7279 8.73422 34.3469C8.87796 33.9658 9.05764 33.5848 9.23732 33.2384C9.48886 32.7187 9.77634 32.2338 10.0638 31.7142C10.4232 31.0906 10.8185 30.4324 11.2137 29.8089C11.6809 29.0814 12.1481 28.3886 12.6152 27.6958C12.6511 27.6265 12.723 27.6265 12.7589 27.6958C13.1902 28.3193 13.5854 28.9429 14.0167 29.5664C14.412 30.19 14.8432 30.8481 15.2025 31.5063C15.5259 32.0606 15.8134 32.6148 16.1009 33.2037C16.3165 33.6541 16.5321 34.1044 16.7118 34.5547C16.9274 35.1436 17.0711 35.7325 16.9633 36.3561C16.8915 36.945 16.6759 37.4992 16.3884 37.9842C16.065 38.5038 15.6697 38.9195 15.1307 39.2659C14.8073 39.4738 14.4838 39.6469 14.1245 39.7509C13.5854 39.9241 13.1183 40.028 12.6152 39.9934Z" fill="white"/>
</svg>

