<svg width="24" height="25" viewBox="0 0 24 25" fill="none" xmlns="http://www.w3.org/2000/svg">
<path fill-rule="evenodd" clip-rule="evenodd" d="M3 12.5C3 11.9477 3.44772 11.5 4 11.5H20C20.5523 11.5 21 11.9477 21 12.5C21 13.0523 20.5523 13.5 20 13.5H4C3.44772 13.5 3 13.0523 3 12.5Z" fill="white"/>
<path fill-rule="evenodd" clip-rule="evenodd" d="M3 6.5C3 5.94772 3.44772 5.5 4 5.5H20C20.5523 5.5 21 5.94772 21 6.5C21 7.05228 20.5523 7.5 20 7.5H4C3.44772 7.5 3 7.05228 3 6.5Z" fill="white"/>
<path fill-rule="evenodd" clip-rule="evenodd" d="M3 18.5C3 17.9477 3.44772 17.5 4 17.5H20C20.5523 17.5 21 17.9477 21 18.5C21 19.0523 20.5523 19.5 20 19.5H4C3.44772 19.5 3 19.0523 3 18.5Z" fill="white"/>
</svg>
