<svg width="40" height="40" viewBox="0 0 40 40" fill="none" xmlns="http://www.w3.org/2000/svg">
<path fill-rule="evenodd" clip-rule="evenodd" d="M15 11C12.7909 11 11 12.7909 11 15V25C11 27.2091 12.7909 29 15 29H25C27.2091 29 29 27.2091 29 25V15C29 12.7909 27.2091 11 25 11H15ZM9 15C9 11.6863 11.6863 9 15 9H25C28.3137 9 31 11.6863 31 15V25C31 28.3137 28.3137 31 25 31H15C11.6863 31 9 28.3137 9 25V15Z" fill="white"/>
<path fill-rule="evenodd" clip-rule="evenodd" d="M20.483 16.989C19.8588 16.8964 19.2214 17.0031 18.6613 17.2937C18.1012 17.5843 17.647 18.0441 17.3633 18.6078C17.0796 19.1714 16.9808 19.8102 17.0811 20.4332C17.1813 21.0562 17.4755 21.6317 17.9217 22.0779C18.3678 22.5241 18.9434 22.8182 19.5664 22.9184C20.1894 23.0187 20.8281 22.9199 21.3917 22.6363C21.9554 22.3526 22.4152 21.8984 22.7058 21.3383C22.9965 20.7782 23.1031 20.1407 23.0105 19.5165C22.9161 18.8798 22.6194 18.2904 22.1643 17.8352C21.7092 17.3801 21.1197 17.0834 20.483 16.989ZM17.7401 15.5184C18.6736 15.0341 19.7361 14.8564 20.7764 15.0106C21.8375 15.168 22.82 15.6625 23.5785 16.421C24.3371 17.1796 24.8315 18.162 24.9889 19.2231C25.1432 20.2634 24.9655 21.3259 24.4811 22.2594C23.9967 23.1929 23.2303 23.9499 22.2909 24.4227C21.3515 24.8955 20.287 25.0601 19.2486 24.893C18.2103 24.726 17.2511 24.2357 16.5074 23.4921C15.7638 22.7484 15.2736 21.7892 15.1065 20.7509C14.9394 19.7126 15.104 18.648 15.5768 17.7086C16.0496 16.7692 16.8066 16.0028 17.7401 15.5184Z" fill="white"/>
<path fill-rule="evenodd" clip-rule="evenodd" d="M24.5 14.5C24.5 13.9477 24.9477 13.5 25.5 13.5H25.51C26.0623 13.5 26.51 13.9477 26.51 14.5C26.51 15.0523 26.0623 15.5 25.51 15.5H25.5C24.9477 15.5 24.5 15.0523 24.5 14.5Z" fill="white"/>
</svg>
