<svg width="101" height="24" viewBox="0 0 101 24" fill="none" xmlns="http://www.w3.org/2000/svg">
<path fill-rule="evenodd" clip-rule="evenodd" d="M41.0999 20.4607C41.0999 21.4552 41.2529 22.0481 41.5398 22.2584C41.8458 22.4497 42.8212 22.5644 44.4851 22.5836L44.466 23.4633C43.6053 23.4059 42.8021 23.3677 42.0562 23.3486L41.9382 23.3455L41.9381 23.3455C41.2355 23.3275 40.5683 23.3103 39.9524 23.3103C39.2831 23.3103 38.5947 23.3294 37.9063 23.3486L37.906 23.3486C37.1984 23.3677 36.4525 23.4059 35.6493 23.4633L35.6301 22.5836C37.0645 22.5071 37.9252 22.3732 38.1929 22.1628C38.4607 21.9524 38.5945 21.3978 38.5945 20.4607V9.88445H35.6875V9.04294H38.5945V7.14955C38.5945 4.85453 39.0535 3.09502 39.9715 1.89013C40.8896 0.685247 42.2092 0.0732422 43.9496 0.0732422C45.0397 0.0732422 45.9577 0.360118 46.6654 0.914748C47.373 1.46938 47.7364 2.17701 47.7364 3.03764C47.7364 3.51577 47.6216 3.87915 47.4112 4.1469C47.2009 4.41465 46.8949 4.54853 46.5124 4.54853C46.149 4.54853 45.8621 4.43378 45.6517 4.2234C45.4413 3.9939 45.3457 3.70702 45.3457 3.32452C45.3457 3.03764 45.4031 2.76989 45.4987 2.50213C45.5944 2.25351 45.7665 1.98576 45.9769 1.75625C45.7474 1.4885 45.4796 1.27813 45.1545 1.14425C44.8293 1.01038 44.4468 0.953001 44.0261 0.953001C42.9933 0.953001 42.2666 1.3355 41.7884 2.11963C41.3294 2.90376 41.0999 4.16603 41.0999 5.90642V9.06207H45.4987V9.90358H41.0999V20.4607ZM8.30033 10.0757C7.33171 11.1393 6.38196 11.9577 5.4698 12.4934V4.41465C5.4698 3.30539 5.60368 2.59776 5.89055 2.31088C6.17743 2.02401 6.82769 1.87101 7.80307 1.87101H8.01345V0.838249C7.40144 0.876499 6.77031 0.914749 6.10093 0.933875C5.43155 0.953 4.72392 0.972121 3.97804 0.972121C3.23216 0.972121 2.52453 0.953 1.87427 0.933875C1.22401 0.914749 0.59288 0.876499 0 0.838249V1.87101H0.210378C1.20489 1.87101 1.83602 2.02401 2.12289 2.29176C2.40977 2.57864 2.56278 3.28627 2.56278 4.43378V19.8678C2.56278 21.0153 2.40977 21.7229 2.12289 22.0098C1.83602 22.2967 1.20489 22.4306 0.229504 22.4306H0.0191263V23.4442C0.803258 23.3868 1.53002 23.3486 2.18027 23.3294L2.23802 23.3277L2.23821 23.3277C2.86804 23.3092 3.47985 23.2912 4.07366 23.2912C4.64844 23.2912 5.25917 23.3092 5.88843 23.3277L5.94793 23.3294C6.59818 23.3677 7.26757 23.4059 7.99432 23.4442V22.4306H7.78394C6.80856 22.4306 6.17743 22.2967 5.89055 22.0098C5.60368 21.7229 5.45067 20.9962 5.45067 19.8678V13.7477L6.96156 12.6576L12.6991 20.671L12.7182 20.6902C13.0434 21.1109 13.2155 21.4552 13.2155 21.7038C13.2155 21.9524 13.1007 22.1437 12.8904 22.2584C12.68 22.3732 12.3549 22.4306 11.8959 22.4306V23.4442C12.5844 23.3868 13.2537 23.3486 13.8849 23.3294L13.9934 23.3261L13.9937 23.3261C14.5844 23.3082 15.1431 23.2912 15.7018 23.2912C16.2415 23.2912 16.7983 23.3081 17.3878 23.326L17.4995 23.3294C18.1307 23.3486 18.8 23.3868 19.4885 23.4442V22.4306H19.3929C18.7427 22.4306 18.1498 22.2776 17.6334 21.9715C17.0979 21.6655 16.6006 21.1874 16.1034 20.518L8.8932 10.7833C10.3085 9.19594 11.762 7.47468 13.2729 5.63867C14.7838 3.80265 15.6444 2.78901 15.8548 2.59776C16.1799 2.31088 16.5241 2.10051 16.9066 1.96663C17.2892 1.83276 17.8247 1.73713 18.494 1.69888V0.838249C17.9968 0.876499 17.4804 0.914749 16.9449 0.933875C16.3903 0.953 15.8165 0.972121 15.1854 0.972121C14.5543 0.972121 13.9614 0.953 13.4259 0.933875C12.8904 0.914749 12.3549 0.876499 11.8576 0.838249V1.71801C12.5844 1.73713 13.0625 1.81363 13.2537 1.90926C13.445 2.02401 13.5406 2.21526 13.5406 2.48301C13.5406 2.69339 13.445 2.98026 13.2346 3.38189C13.0242 3.78352 12.68 4.31903 12.2019 5.00753C10.5762 7.32168 9.27571 9.00469 8.30033 10.0757ZM74.4543 8.66083C74.2439 8.66083 74.0144 8.6417 73.804 8.5652C73.3641 8.43132 73.0008 8.1827 72.7139 7.81932C72.5609 7.62807 72.4461 7.41769 72.3505 7.18819C72.2357 6.86306 72.1593 6.51881 72.2166 6.17455C72.2549 5.96418 72.3123 5.7538 72.3888 5.54343C72.4653 5.33305 72.5609 5.12267 72.6565 4.93142C72.7556 4.71916 72.8651 4.51737 72.9773 4.31056C73.0168 4.23786 73.0566 4.16453 73.0964 4.08991C73.2876 3.74566 73.498 3.38228 73.7084 3.03803C73.957 2.6364 74.2056 2.2539 74.4543 1.87139C74.4734 1.83314 74.5117 1.83314 74.5308 1.87139C74.6455 2.04349 74.7555 2.21558 74.8654 2.38767C74.9754 2.55983 75.0854 2.73199 75.2002 2.90415C75.2342 2.95979 75.2687 3.01592 75.3034 3.07248C75.4837 3.36586 75.6709 3.67051 75.8313 3.97516C76.0034 4.28116 76.1564 4.58716 76.3094 4.91229C76.4242 5.16092 76.5389 5.40955 76.6345 5.65817C76.7493 5.9833 76.8258 6.30843 76.7684 6.65268C76.7302 6.97781 76.6154 7.28382 76.4624 7.55157C76.2903 7.83845 76.0799 8.06795 75.793 8.2592C75.6209 8.37395 75.4488 8.46957 75.2575 8.52695C74.9898 8.62257 74.7411 8.67995 74.4543 8.66083ZM74.7222 21.1113C74.2823 19.4474 74.8369 18.319 75.7358 17.1524C76.2767 16.4665 76.8721 15.826 77.4719 15.1808L77.472 15.1808C77.7418 14.8906 78.0125 14.5994 78.2794 14.3028C78.3889 14.1848 78.4994 14.0679 78.6097 13.951L78.6098 13.9509L78.6099 13.9508L78.61 13.9506L78.6103 13.9504L78.6107 13.9499L78.6116 13.9489C79.0017 13.5357 79.3905 13.1238 79.733 12.6771C80.5745 11.587 80.7849 10.3438 80.3641 9.02421C80.0198 7.93408 79.4652 6.97782 78.509 6.13631C78.5266 8.13404 77.5148 9.57613 76.5006 11.0215C76.4176 11.1398 76.3346 11.258 76.2522 11.3766C76.0912 11.6037 75.9283 11.8299 75.7655 12.0562L75.7654 12.0563L75.7653 12.0564C75.1739 12.8781 74.5817 13.7008 74.0719 14.5705C73.2495 15.9284 72.867 17.4202 73.2687 19.0267C73.4982 19.8873 73.8998 20.4419 74.7222 21.1113ZM78.2599 23.8274C78.4703 23.9039 78.6998 23.9231 78.9102 23.9231C79.1779 23.9422 79.4266 23.8848 79.7134 23.7892C79.9047 23.7318 80.0768 23.6362 80.2489 23.5214C80.5358 23.3302 80.7462 23.1007 80.9183 22.8138C81.0713 22.5461 81.1861 22.2401 81.2243 21.9149C81.2817 21.5707 81.2052 21.2455 81.0904 20.9204C80.9949 20.672 80.8803 20.4237 80.7656 20.1753L80.7656 20.1752L80.7655 20.1751L80.7655 20.175L80.7655 20.1749L80.7654 20.1747L80.7654 20.1746L80.7653 20.1745C80.6123 19.8494 80.4593 19.5434 80.2872 19.2374C80.1268 18.9327 79.9396 18.628 79.7593 18.3346L79.7567 18.3305L79.7525 18.3236C79.7201 18.2708 79.6878 18.2184 79.6561 18.1664C79.5413 17.9943 79.4314 17.8222 79.3214 17.6501C79.2114 17.478 79.1015 17.3058 78.9867 17.1336C78.9676 17.0954 78.9293 17.0954 78.9102 17.1336L78.9097 17.1343C78.6613 17.5166 78.4128 17.8989 78.1643 18.3003C77.9539 18.6445 77.7435 19.0079 77.5523 19.3522C77.5125 19.4268 77.4726 19.5002 77.4332 19.573C77.3209 19.7797 77.2114 19.9815 77.1124 20.1937C77.0168 20.3849 76.9212 20.5953 76.8447 20.8057C76.7682 21.016 76.7108 21.2264 76.6725 21.4368C76.6152 21.7811 76.6917 22.1253 76.8064 22.4504C76.902 22.6799 77.0168 22.8903 77.1698 23.0816C77.4567 23.445 77.82 23.6936 78.2599 23.8274ZM26.7561 23.1956C27.5593 22.794 28.3626 22.182 29.1658 21.3596C29.2423 22.1246 29.491 22.7175 29.9308 23.1191C30.3707 23.5208 30.9636 23.7311 31.7095 23.7311C32.4554 23.7311 33.1056 23.5399 33.6411 23.1765C34.1766 22.794 34.6165 22.2394 34.9799 21.4935L34.4635 21.1875C34.2914 21.4935 34.081 21.723 33.8515 21.876C33.622 22.029 33.3351 22.1055 33.01 22.1055C32.5127 22.1055 32.1685 21.9716 31.9772 21.6847C31.786 21.3979 31.6904 20.8241 31.6904 19.9826C31.6904 19.8679 31.6904 19.6575 31.7095 19.3706C31.7286 19.0837 31.7286 18.8734 31.7286 18.7012L31.8625 13.6904V13.3079C31.8625 11.491 31.4609 10.1905 30.6958 9.38727C29.9117 8.58401 28.6686 8.18239 26.9664 8.18239C25.5129 8.18239 24.2507 8.58401 23.1414 9.42552C22.0513 10.267 21.4966 11.185 21.4966 12.1987C21.4966 12.562 21.5731 12.8489 21.7453 13.0593C21.9174 13.2697 22.1469 13.3653 22.4147 13.3653C22.8354 13.3653 23.1605 13.1932 23.4283 12.8489C23.6769 12.4855 23.8108 12.0265 23.8108 11.4719C23.8108 11.2998 23.7917 10.9555 23.7343 10.4774C23.7263 10.4133 23.7216 10.3559 23.7175 10.3053V10.3052C23.7118 10.235 23.7072 10.1776 23.696 10.1332C24.1168 9.7889 24.5758 9.52115 25.073 9.34902C25.5703 9.1769 26.1058 9.10039 26.7178 9.10039C27.6741 9.10039 28.3626 9.38727 28.7642 9.98015C29.1658 10.5539 29.3571 11.6058 29.3571 13.1167V13.6331L29.3188 15.1631C28.8598 15.2778 28.2287 15.4308 27.4063 15.6221C25.5512 16.062 24.3654 16.368 23.849 16.521C22.7589 16.8652 21.9557 17.3433 21.4584 17.9553C20.9611 18.5674 20.7125 19.3706 20.7125 20.3651C20.7125 21.4553 21.0376 22.2968 21.6496 22.8896C22.2617 23.4825 23.1223 23.7885 24.2315 23.7885C25.1113 23.7885 25.9528 23.5781 26.7561 23.1956ZM24.1359 17.6302C24.8435 17.133 26.5648 16.5975 29.2997 16.0428L29.2041 19.9635C28.6686 20.7859 28.0948 21.3787 27.4828 21.7804C26.8708 22.182 26.2014 22.3733 25.4556 22.3733C24.7288 22.3733 24.1742 22.1438 23.7343 21.6847C23.2944 21.2257 23.084 20.6137 23.084 19.8296C23.084 18.8542 23.4283 18.1275 24.1359 17.6302ZM51.5805 22.2584C51.2937 22.0481 51.1407 21.4552 51.1407 20.4607H51.1598V9.90358H55.5586V9.06207H51.1598V5.90642C51.1598 4.16603 51.3893 2.90376 51.8483 2.11963C52.3264 1.3355 53.0532 0.953001 54.0859 0.953001C54.5067 0.953001 54.8892 1.01038 55.2143 1.14425C55.5394 1.27813 55.8072 1.4885 56.0367 1.75625C55.8263 1.98576 55.6542 2.25351 55.5586 2.50213C55.4629 2.76989 55.4056 3.03764 55.4056 3.32452C55.4056 3.70702 55.5012 3.9939 55.7116 4.2234C55.9219 4.43378 56.2088 4.54853 56.5722 4.54853C56.9547 4.54853 57.2607 4.41465 57.4711 4.1469C57.6815 3.87915 57.7962 3.51577 57.7962 3.03764C57.7962 2.17701 57.4328 1.46938 56.7252 0.914748C56.0176 0.360118 55.0996 0.0732422 54.0094 0.0732422C52.269 0.0732422 50.9494 0.685247 50.0314 1.89013C49.1134 3.09502 48.6544 4.85453 48.6544 7.14955V9.04294H45.7474V9.88445H48.6353V20.4607C48.6353 21.3978 48.5014 21.9524 48.2336 22.1628C47.9659 22.3732 47.1052 22.5071 45.6709 22.5836L45.69 23.4633C46.4932 23.4059 47.2391 23.3677 47.9468 23.3486L47.947 23.3486C48.6354 23.3294 49.3238 23.3103 49.9931 23.3103C50.609 23.3103 51.2762 23.3275 51.9787 23.3455L51.9789 23.3455L52.0969 23.3486C52.8428 23.3677 53.6461 23.4059 54.5067 23.4633L54.5258 22.5836C52.8619 22.5644 51.8865 22.4497 51.5805 22.2584ZM59.4984 15.3542V16.0427C59.4984 18.1082 59.9191 19.6574 60.7415 20.6901C61.5639 21.742 62.807 22.2584 64.4518 22.2584C65.5611 22.2584 66.5364 21.9715 67.3588 21.4169C68.1812 20.8623 68.7932 20.0399 69.1948 18.988L69.8642 19.2558C69.4243 20.7475 68.6593 21.8759 67.5501 22.66C66.4408 23.4442 65.0638 23.8458 63.3999 23.8458C61.2962 23.8458 59.6514 23.1764 58.4656 21.8185C57.2799 20.4798 56.7061 18.5864 56.7061 16.1766C56.7061 13.6903 57.3372 11.7204 58.6186 10.2669C59.9 8.79428 61.6213 8.06752 63.7824 8.06752C65.6949 8.06752 67.1676 8.62216 68.2386 9.75054C69.3096 10.8789 69.8451 12.4281 69.8451 14.4362V14.4363C69.8451 14.4937 69.8451 14.6084 69.826 14.7422C69.8069 14.8952 69.8068 14.9908 69.8068 15.0673L59.4984 15.3542ZM59.4984 14.4936L67.4545 14.1876V13.9198C67.4545 12.2751 67.1485 11.0319 66.5556 10.1904C65.9627 9.34891 65.0638 8.92816 63.8972 8.92816C62.5584 8.92816 61.5065 9.40629 60.7415 10.3817C59.9956 11.3379 59.594 12.7149 59.4984 14.4936ZM99.47 22.182C99.2597 21.9907 99.1449 21.417 99.1449 20.4607H99.1258V13.7669C99.1258 11.7205 98.7624 10.267 98.0356 9.42549C97.3089 8.56486 96.0849 8.1441 94.3827 8.1441C93.197 8.1441 92.126 8.4501 91.1697 9.04298C90.2134 9.63586 89.3911 10.5347 88.7025 11.7205V8.1441C87.9485 8.24693 87.1944 8.3344 86.4541 8.42028C86.3682 8.43023 86.2826 8.44017 86.1972 8.4501C85.4016 8.54261 84.5881 8.59933 83.7913 8.65487L83.7109 8.66048V9.54024C84.8775 9.54024 85.6043 9.65499 85.8912 9.86536C86.1589 10.0949 86.3119 10.6304 86.3119 11.4719V20.4607C86.3119 21.3787 86.1972 21.9333 85.9294 22.1437C85.6616 22.3541 84.954 22.5071 83.7683 22.5836V23.4634C84.4568 23.406 85.0688 23.3677 85.6425 23.3486L85.7537 23.3449C86.2857 23.3271 86.7853 23.3104 87.2682 23.3104C87.8036 23.3104 88.3582 23.3295 88.9128 23.3486L88.9129 23.3486C89.4676 23.3677 90.0604 23.406 90.6724 23.4634V22.5836C89.8692 22.5262 89.3528 22.3732 89.1233 22.182C88.8938 21.9716 88.7791 21.3978 88.7791 20.4607V14.4172C88.7791 13.1358 89.2954 11.9691 90.3473 10.879C91.3801 9.78887 92.5658 9.25336 93.8472 9.25336C94.8226 9.25336 95.5302 9.57849 95.9701 10.2479C96.41 10.9172 96.6395 11.9691 96.6395 13.4226V20.4607C96.6395 21.3787 96.5056 21.9333 96.257 22.1437C95.9892 22.335 95.3007 22.488 94.1341 22.5645V23.4442C94.8226 23.3869 95.4537 23.3486 96.0084 23.3295L96.0086 23.3295C96.5631 23.3104 97.1177 23.2912 97.634 23.2912C98.1325 23.2912 98.6488 23.3091 99.183 23.3275L99.2405 23.3295C99.7952 23.3486 100.388 23.3869 101 23.4442V22.5645C100.197 22.5071 99.6995 22.3732 99.47 22.182Z" fill="#121111"/>
</svg>
