<svg width="195" height="78" viewBox="0 0 195 78" fill="none" xmlns="http://www.w3.org/2000/svg">
<path d="M79.4445 38.7963C79.4445 40.6888 79.7384 41.8171 80.2894 42.2174C80.8772 42.5813 82.7507 42.7997 85.9467 42.8361L85.91 44.5103C84.2569 44.4011 82.714 44.3283 81.2813 44.2919L81.0545 44.2861L81.0531 44.2861C79.7042 44.2517 78.4229 44.2191 77.2404 44.2191C75.9549 44.2191 74.6326 44.2555 73.3103 44.2919C71.9511 44.3282 70.5178 44.4011 68.9749 44.5103L68.9382 42.8361C71.6933 42.6905 73.3464 42.4358 73.8607 42.0354C74.375 41.6351 74.6322 40.5797 74.6322 38.7963V18.6703H69.0484V17.0689H74.6322V13.4659C74.6322 9.09858 75.5138 5.7503 77.2771 3.45746C79.0404 1.16462 81.5752 0 84.9181 0C87.012 0 88.7753 0.545912 90.1345 1.60135C91.4937 2.65678 92.1917 4.00337 92.1917 5.64112C92.1917 6.55098 91.9713 7.24246 91.5672 7.75198C91.1631 8.2615 90.5754 8.51627 89.8407 8.51627C89.1427 8.51627 88.5917 8.2979 88.1876 7.89756C87.7835 7.46083 87.5998 6.91492 87.5998 6.18703C87.5998 5.64112 87.71 5.13159 87.8937 4.62207C88.0774 4.14894 88.408 3.63943 88.8121 3.20269C88.3712 2.69317 87.8569 2.29284 87.2324 2.03808C86.6079 1.78332 85.8732 1.67414 85.065 1.67414C83.0813 1.67414 81.6854 2.40202 80.767 3.89418C79.8853 5.38635 79.4445 7.78838 79.4445 11.1003V17.1053H87.8937V18.7067H79.4445V38.7963Z" fill="white"/>
<path d="M16.4432 19.0342C14.5827 21.0582 12.7584 22.6155 11.0063 23.635V8.2615C11.0063 6.15063 11.2635 4.80404 11.8145 4.25813C12.3656 3.71221 13.6146 3.42106 15.4881 3.42106H15.8922V1.45577C14.7166 1.52856 13.5044 1.60135 12.2186 1.63774C10.9329 1.67414 9.57367 1.71053 8.14098 1.71053C6.7083 1.71053 5.34909 1.67414 4.10008 1.63774C2.85108 1.60135 1.6388 1.52856 0.5 1.45577V3.42106H0.904092C2.81434 3.42106 4.02661 3.71222 4.57764 4.22174C5.12867 4.76766 5.42256 6.11424 5.42256 8.2979V37.6681C5.42256 39.8518 5.12867 41.1984 4.57764 41.7443C4.02661 42.2902 2.81434 42.5449 0.94083 42.5449H0.536738V44.4738C2.04289 44.3647 3.43885 44.2919 4.68785 44.2555L4.7986 44.2523C6.00837 44.217 7.18406 44.1827 8.32466 44.1827C9.42867 44.1827 10.6017 44.2169 11.8104 44.2521L11.9247 44.2555C13.1737 44.3283 14.4595 44.4011 15.8554 44.4738V42.5449H15.4513C13.5778 42.5449 12.3656 42.2902 11.8145 41.7443C11.2635 41.1984 10.9696 39.8154 10.9696 37.6681V26.0219L13.8717 23.9475L24.8924 39.1967L24.9291 39.2331C25.5536 40.0337 25.8842 40.6888 25.8842 41.162C25.8842 41.6351 25.6638 41.999 25.2597 42.2174C24.8556 42.4358 24.2311 42.5449 23.3495 42.5449V44.4738C24.6719 44.3647 25.9577 44.2919 27.17 44.2555L27.3782 44.2492C28.5129 44.215 29.5866 44.1827 30.6598 44.1827C31.6967 44.1827 32.7661 44.2149 33.8985 44.249L34.1129 44.2555C35.3252 44.2919 36.611 44.3647 37.9334 44.4738V42.5449H37.7498C36.5008 42.5449 35.362 42.2538 34.3701 41.6715C33.3415 41.0892 32.3864 40.1793 31.4313 38.9055L17.582 20.3808C20.3004 17.3601 23.0923 14.0846 25.9944 10.5907C28.8965 7.09689 30.5496 5.16799 30.9537 4.80404C31.5782 4.25813 32.2395 3.85779 32.9742 3.60303C33.7089 3.34827 34.7375 3.16631 36.0232 3.09352V1.45577C35.0681 1.52856 34.0762 1.60135 33.0476 1.63774C31.9823 1.67414 30.8802 1.71053 29.668 1.71053C28.4557 1.71053 27.3169 1.67414 26.2883 1.63774C25.2597 1.60135 24.2311 1.52856 23.276 1.45577V3.12991C24.6719 3.16631 25.5903 3.31188 25.9577 3.49386C26.325 3.71222 26.5087 4.07617 26.5087 4.58569C26.5087 4.98602 26.325 5.53193 25.9209 6.29621C25.5169 7.06049 24.8556 8.07953 23.9372 9.38973C20.8147 13.7934 18.3167 16.9961 16.4432 19.0342Z" fill="white"/>
<path d="M143.511 16.341C143.107 16.341 142.666 16.3047 142.262 16.1591C141.417 15.9043 140.719 15.4312 140.168 14.7397C139.874 14.3758 139.654 13.9754 139.47 13.5387C139.25 12.92 139.103 12.2649 139.213 11.6098C139.287 11.2094 139.397 10.8091 139.544 10.4088C139.691 10.0084 139.874 9.6081 140.058 9.24415C140.248 8.84033 140.459 8.45643 140.674 8.06297C140.75 7.92453 140.826 7.7849 140.903 7.64281C141.27 6.98771 141.674 6.29622 142.078 5.64112C142.556 4.87684 143.034 4.14895 143.511 3.42106C143.548 3.34828 143.621 3.34828 143.658 3.42106C143.879 3.74866 144.09 4.07626 144.301 4.40386C144.512 4.73136 144.723 5.05886 144.944 5.38636C145.009 5.49215 145.075 5.5989 145.142 5.70644L145.142 5.7071C145.489 6.26526 145.848 6.84485 146.156 7.42444C146.487 8.00675 146.781 8.58906 147.075 9.20776C147.295 9.68088 147.515 10.154 147.699 10.6271C147.919 11.2458 148.066 11.8645 147.956 12.5196C147.883 13.1383 147.662 13.7207 147.368 14.2302C147.038 14.7761 146.634 15.2128 146.083 15.5768C145.752 15.7951 145.421 15.9771 145.054 16.0863C144.54 16.2683 144.062 16.3774 143.511 16.341Z" fill="white"/>
<path d="M144.025 40.0337C143.181 36.8674 144.246 34.7202 145.972 32.5001C147.011 31.1948 148.155 29.976 149.307 28.7483L149.309 28.7463C149.827 28.1947 150.346 27.6413 150.858 27.0774C151.069 26.8525 151.282 26.6294 151.494 26.4066L151.495 26.4054L151.497 26.4038C152.246 25.6175 152.992 24.8338 153.65 23.9838C155.267 21.9094 155.671 19.5437 154.862 17.0325C154.201 14.9581 153.136 13.1383 151.299 11.537C151.333 15.3386 149.389 18.0828 147.441 20.8334C147.282 21.0583 147.123 21.2834 146.964 21.509C146.655 21.9411 146.342 22.3715 146.03 22.8021C144.893 24.366 143.756 25.9317 142.776 27.5869C141.197 30.1709 140.462 33.0096 141.234 36.0668C141.674 37.7045 142.446 38.7599 144.025 40.0337Z" fill="white"/>
<path d="M150.822 45.2017C151.226 45.3473 151.666 45.3837 152.071 45.3837C152.585 45.4201 153.062 45.3109 153.613 45.1289C153.981 45.0198 154.311 44.8378 154.642 44.6194C155.193 44.2555 155.597 43.8187 155.928 43.2728C156.222 42.7633 156.442 42.181 156.516 41.5623C156.626 40.9072 156.479 40.2885 156.258 39.6698C156.075 39.1967 155.854 38.7237 155.634 38.2506C155.34 37.6319 155.046 37.0494 154.716 36.4671C154.407 35.8873 154.048 35.3075 153.701 34.7492C153.635 34.6416 153.569 34.5348 153.503 34.429C153.283 34.1015 153.072 33.7739 152.86 33.4464C152.649 33.1188 152.438 32.7913 152.217 32.4637C152.181 32.3909 152.107 32.3909 152.071 32.4637L152.069 32.4656C151.592 33.1929 151.115 33.9202 150.638 34.6838C150.234 35.3389 149.83 36.0304 149.462 36.6855C149.386 36.827 149.31 36.966 149.234 37.1039L149.234 37.1051L149.233 37.1058C149.018 37.4991 148.808 37.8831 148.617 38.2868C148.434 38.6508 148.25 39.0511 148.103 39.4514C147.956 39.8518 147.846 40.2521 147.773 40.6524C147.662 41.3075 147.809 41.9626 148.03 42.5813C148.213 43.0181 148.434 43.4184 148.728 43.7824C149.279 44.4739 149.977 44.947 150.822 45.2017Z" fill="white"/>
<path fill-rule="evenodd" clip-rule="evenodd" d="M51.8929 44.0007C53.4358 43.2364 54.9787 42.0718 56.5216 40.5069C56.6685 41.9626 57.1461 43.0909 57.991 43.8551C58.8359 44.6194 59.9747 45.0198 61.4074 45.0198C62.8401 45.0198 64.0891 44.6558 65.1177 43.9643C66.1463 43.2365 66.9912 42.181 67.6892 40.7616L66.6973 40.1793C66.3667 40.7616 65.9626 41.1983 65.5218 41.4895C65.0809 41.7807 64.5299 41.9262 63.9054 41.9262C62.9503 41.9262 62.2891 41.6715 61.9217 41.1256C61.5543 40.5796 61.3707 39.4878 61.3707 37.8865C61.3707 37.6681 61.3707 37.2678 61.4074 36.7219C61.4441 36.1759 61.4441 35.7756 61.4441 35.4481L61.7013 25.9127V25.1849C61.7013 21.7274 60.9298 19.2526 59.4604 17.724C57.9543 16.1955 55.5665 15.4312 52.297 15.4312C49.5051 15.4312 47.0806 16.1955 44.9499 17.7968C42.856 19.3982 41.7907 21.1451 41.7907 23.074C41.7907 23.7655 41.9376 24.3114 42.2682 24.7117C42.5988 25.1121 43.0397 25.294 43.554 25.294C44.3621 25.294 44.9866 24.9665 45.5009 24.3114C45.9785 23.6199 46.2357 22.7464 46.2357 21.691C46.2357 21.3635 46.1989 20.7084 46.0887 19.7985C46.0733 19.6765 46.0644 19.5674 46.0565 19.4709C46.0455 19.3372 46.0366 19.228 46.0152 19.1434C46.8234 18.4883 47.7051 17.9788 48.6602 17.6512C49.6153 17.3237 50.6439 17.1781 51.8195 17.1781C53.6562 17.1781 54.9787 17.724 55.7501 18.8522C56.5216 19.9441 56.8889 21.9458 56.8889 24.8209V25.8036L56.8155 28.7151C55.9338 28.9335 54.7215 29.2246 53.1419 29.5886C49.5786 30.4256 47.301 31.008 46.3091 31.2991C44.2152 31.9542 42.6723 32.8641 41.7172 34.0287C40.7621 35.1933 40.2845 36.7219 40.2845 38.6144C40.2845 40.6888 40.909 42.2902 42.0845 43.4184C43.2601 44.5466 44.9132 45.1289 47.0438 45.1289C48.7337 45.1289 50.35 44.7286 51.8929 44.0007ZM46.8602 33.41C48.2194 32.4637 51.5256 31.4447 56.7787 30.3893L56.5951 37.8501C55.5665 39.415 54.4644 40.5433 53.2889 41.3075C52.1133 42.0718 50.8276 42.4358 49.3949 42.4358C47.999 42.4358 46.9336 41.999 46.0887 41.1256C45.2438 40.2521 44.8397 39.0875 44.8397 37.5953C44.8397 35.7392 45.5009 34.3562 46.8602 33.41Z" fill="white"/>
<path d="M99.5756 42.2174C99.0245 41.8171 98.7306 40.6888 98.7306 38.7963H98.7674V18.7067H107.217V17.1053H98.7674V11.1003C98.7674 7.78838 99.2082 5.38635 100.09 3.89418C101.008 2.40202 102.404 1.67414 104.388 1.67414C105.196 1.67414 105.931 1.78332 106.555 2.03808C107.18 2.29284 107.694 2.69317 108.135 3.20269C107.731 3.63943 107.4 4.14894 107.217 4.62207C107.033 5.13159 106.923 5.64112 106.923 6.18703C106.923 6.91492 107.106 7.46083 107.51 7.89756C107.914 8.2979 108.466 8.51627 109.163 8.51627C109.898 8.51627 110.486 8.2615 110.89 7.75198C111.294 7.24246 111.515 6.55098 111.515 5.64112C111.515 4.00337 110.817 2.65678 109.457 1.60135C108.098 0.545912 106.335 0 104.241 0C100.898 0 98.3633 1.16462 96.6 3.45746C94.8367 5.7503 93.955 9.09858 93.955 13.4659V17.0689H88.3712V18.6703H93.9183V38.7963C93.9183 40.5797 93.6611 41.6351 93.1468 42.0354C92.6326 42.4358 90.9794 42.6905 88.2243 42.8361L88.261 44.5103C89.8039 44.4011 91.2366 44.3283 92.5958 44.2919C93.9181 44.2555 95.241 44.2191 96.5265 44.2191C97.7094 44.2191 98.9911 44.2517 100.34 44.2861L100.567 44.2919C102 44.3283 103.543 44.4011 105.196 44.5103L105.233 42.8361C102.037 42.7997 100.163 42.5813 99.5756 42.2174Z" fill="white"/>
<path fill-rule="evenodd" clip-rule="evenodd" d="M114.784 29.0791V30.3893C114.784 34.3198 115.592 37.2678 117.172 39.2331C118.751 41.2348 121.139 42.2174 124.299 42.2174C126.429 42.2174 128.303 41.6715 129.882 40.6161C131.462 39.5606 132.637 37.9957 133.409 35.994L134.695 36.5035C133.85 39.3423 132.38 41.4895 130.25 42.9817C128.119 44.4739 125.474 45.2381 122.278 45.2381C118.237 45.2381 115.078 43.9643 112.8 41.3803C110.523 38.8327 109.421 35.2297 109.421 30.644C109.421 25.9127 110.633 22.1641 113.094 19.3982C115.555 16.5958 118.862 15.2128 123.013 15.2128C126.686 15.2128 129.515 16.2683 131.572 18.4155C133.629 20.5628 134.658 23.5107 134.658 27.3321C134.658 27.4413 134.658 27.6597 134.621 27.9144C134.584 28.2056 134.584 28.3876 134.584 28.5331L114.784 29.0791ZM114.784 27.4413L130.066 26.859V26.3495C130.066 23.2196 129.478 20.8539 128.339 19.2526C127.201 17.6512 125.474 16.8506 123.233 16.8506C120.662 16.8506 118.641 17.7604 117.172 19.6165C115.739 21.4362 114.968 24.0566 114.784 27.4413Z" fill="white"/>
<path d="M191.561 42.0718C191.157 41.7079 190.937 40.6161 190.937 38.7963H190.9V26.0583C190.9 22.1641 190.202 19.3982 188.806 17.7968C187.41 16.1591 185.059 15.3584 181.79 15.3584C179.512 15.3584 177.455 15.9407 175.618 17.0689C173.781 18.1972 172.202 19.9077 170.879 22.1641V15.3584C169.431 15.5541 167.982 15.7205 166.56 15.8839C166.395 15.9029 166.231 15.9218 166.067 15.9407C164.539 16.1168 162.976 16.2247 161.446 16.3304L161.291 16.341V18.0152C163.532 18.0152 164.928 18.2335 165.479 18.6339C165.993 19.0706 166.287 20.0897 166.287 21.691V38.7963C166.287 40.5433 166.067 41.5987 165.552 41.999C165.038 42.3994 163.679 42.6905 161.401 42.8361V44.5103C162.724 44.4011 163.899 44.3283 165.001 44.2919L165.215 44.2848C166.237 44.2509 167.196 44.2191 168.124 44.2191C169.152 44.2191 170.218 44.2555 171.283 44.2919C172.348 44.3282 173.487 44.4011 174.663 44.5103V42.8361C173.12 42.7269 172.128 42.4358 171.687 42.0718C171.246 41.6715 171.026 40.5797 171.026 38.7963V27.2957C171.026 24.8573 172.018 22.6373 174.038 20.5628C176.022 18.4883 178.3 17.4693 180.761 17.4693C182.634 17.4693 183.994 18.088 184.839 19.3618C185.683 20.6356 186.124 22.6373 186.124 25.4032V38.7963C186.124 40.5433 185.867 41.5987 185.39 41.999C184.875 42.363 183.553 42.6541 181.312 42.7997V44.4738C182.634 44.3647 183.847 44.2919 184.912 44.2555C185.977 44.2191 187.043 44.1827 188.035 44.1827C188.992 44.1827 189.984 44.2166 191.01 44.2517L191.12 44.2555C192.186 44.2919 193.324 44.3647 194.5 44.4738V42.7997C192.957 42.6905 192.002 42.4358 191.561 42.0718Z" fill="white"/>
<path d="M142.446 75.4524C142.446 76.2167 142.556 76.6534 142.776 76.799C142.997 76.9446 143.768 77.0174 145.054 77.0538V77.7088L144.937 77.7024C144.319 77.6683 143.736 77.6361 143.217 77.6361C142.63 77.5997 142.115 77.5997 141.601 77.5997C141.087 77.5997 140.572 77.5997 140.021 77.6361C139.736 77.6549 139.452 77.6639 139.157 77.6734C138.881 77.6822 138.596 77.6913 138.295 77.7088V77.0538C139.397 77.0174 140.058 76.9082 140.242 76.7262C140.462 76.5806 140.572 76.1439 140.572 75.416V67.4093H138.331V66.7542H140.572V65.3348C140.572 63.5879 140.94 62.2413 141.638 61.3314C142.335 60.4216 143.364 59.9484 144.687 59.9484C145.531 59.9484 146.229 60.1668 146.78 60.6035C147.332 61.0403 147.589 61.5862 147.589 62.2049C147.589 62.5688 147.515 62.86 147.332 63.0419C147.185 63.2603 146.927 63.3331 146.634 63.3331C146.376 63.3331 146.156 63.2603 145.972 63.0783C145.825 62.8964 145.715 62.678 145.715 62.3869C145.715 62.1685 145.752 61.9501 145.825 61.7681C145.899 61.5862 146.009 61.3678 146.193 61.1858C146.009 60.9675 145.825 60.8219 145.568 60.7127C145.311 60.6035 145.017 60.5671 144.687 60.5671C143.915 60.5671 143.327 60.8583 142.96 61.4406C142.593 62.0229 142.446 63.0056 142.446 64.3158V66.7178H145.825V67.3729H142.446V75.4524Z" fill="white"/>
<path fill-rule="evenodd" clip-rule="evenodd" d="M60.9666 62.4597C60.9666 61.8046 60.8564 61.4042 60.636 61.2587C60.4156 61.0767 59.8646 61.0039 58.9462 61.0039V60.3488C59.6072 60.3124 60.2689 60.276 60.8932 60.2032C61.2054 60.1668 61.5269 60.1305 61.8483 60.0941C62.1697 60.0577 62.4912 60.0213 62.8034 59.9849V75.4524C62.8034 76.0711 62.9136 76.4715 63.0973 76.6171C63.281 76.7626 63.6851 76.8718 64.3463 76.9082V77.5633C63.5749 77.6361 62.9504 77.7089 62.4361 77.7817C62.2085 77.8139 61.9881 77.839 61.7749 77.8632C61.5065 77.8938 61.249 77.9231 61.0034 77.9637V76.5079C60.4891 76.981 59.938 77.345 59.3135 77.5997C58.7258 77.8545 58.0645 77.9637 57.3666 77.9637C55.9339 77.9637 54.7951 77.4541 53.9869 76.4715C53.1787 75.4889 52.7379 74.1059 52.7379 72.3589C52.7379 70.4664 53.2155 68.9379 54.1339 67.8096C55.0522 66.6814 56.3012 66.1355 57.8809 66.1355C58.4686 66.1355 58.9829 66.2447 59.4972 66.4267C60.0115 66.6086 60.4891 66.9362 60.9666 67.3365V62.4597ZM60.9299 75.5616V68.3192C60.5626 67.8096 60.1585 67.4457 59.7176 67.1909C59.2768 66.9362 58.7993 66.827 58.2482 66.827C57.1462 66.827 56.3012 67.3001 55.7135 68.21C55.1257 69.1199 54.8318 70.43 54.8318 72.1406C54.8318 73.7783 55.089 75.0157 55.64 75.8164C56.191 76.6171 56.9992 77.0538 58.0645 77.0538C58.6156 77.0538 59.1299 76.9446 59.6074 76.6899C60.1217 76.4715 60.5258 76.0712 60.9299 75.5616Z" fill="white"/>
<path d="M21.2922 74.6518V74.3242L21.4024 61.659H21.5861L27.2801 77.5269H27.7576L33.4884 61.659H33.5619V75.0157C33.5619 75.8528 33.4516 76.3987 33.2312 76.6171C33.0108 76.8354 32.5332 76.9446 31.7985 76.9446H31.6516V77.7089C31.9357 77.6913 32.2112 77.6822 32.4781 77.6734C32.7634 77.664 33.039 77.6549 33.3047 77.6361C33.8189 77.5997 34.2963 77.5997 34.7738 77.5997C35.2512 77.5997 35.7294 77.5997 36.2435 77.6361C36.7255 77.6361 37.2074 77.6681 37.7196 77.702L37.8232 77.7089V76.9446H37.6395C36.9048 76.9446 36.4272 76.8354 36.2068 76.6171C35.9864 76.3987 35.8762 75.8528 35.8762 74.9793V63.2603C35.8762 62.4233 35.9864 61.8774 36.2068 61.659C36.4272 61.4407 36.9048 61.3315 37.6395 61.3315H37.8232V60.5308C37.4558 60.5672 37.0884 60.6036 36.6844 60.6036C36.317 60.64 35.8762 60.64 35.4353 60.64C35.2049 60.64 34.9845 60.63 34.7741 60.6205C34.5821 60.6119 34.3984 60.6036 34.2231 60.6036C34.044 60.5858 33.8649 60.5767 33.6901 60.5679C33.5063 60.5585 33.3272 60.5494 33.1578 60.5308L28.2719 74.1059L23.3861 60.5308C23.0188 60.5672 22.6514 60.6036 22.2473 60.6036C21.88 60.64 21.4391 60.64 20.9983 60.64C20.7679 60.64 20.5374 60.63 20.3175 60.6205C20.1167 60.6119 19.9246 60.6036 19.7493 60.6036C19.5573 60.5863 19.3737 60.5772 19.1983 60.5685C19.0045 60.559 18.8208 60.5499 18.6473 60.5308V61.3315H18.7942C19.5289 61.3315 20.0065 61.4407 20.2269 61.659C20.4473 61.8774 20.5575 62.3505 20.5575 63.0784V63.2603L20.4473 74.3242V74.3606C20.4105 76.1075 19.7493 76.981 18.3901 76.981H18.2432V77.7453C18.472 77.7279 18.6924 77.7188 18.9043 77.71C19.1347 77.7005 19.3552 77.6915 19.5656 77.6725C20.0065 77.6361 20.4105 77.6361 20.7779 77.6361C21.182 77.6361 21.5861 77.6361 21.9902 77.6725C22.3942 77.6725 22.8349 77.7089 23.2756 77.7453L23.2759 76.981H23.1657C22.3943 76.981 21.9167 76.8354 21.6596 76.5443C21.4024 76.2895 21.2922 75.6344 21.2922 74.6518Z" fill="white"/>
<path fill-rule="evenodd" clip-rule="evenodd" d="M41.6068 67.8096C40.6149 68.9014 40.1373 70.3936 40.1373 72.2497C40.1373 73.9966 40.5782 75.3796 41.4598 76.4715C42.3782 77.4905 43.5537 78 45.0966 78C46.713 78 48.0355 77.4177 49.0273 76.3259C50.0192 75.234 50.5335 73.7419 50.5335 71.8858C50.5335 70.1388 50.0927 68.7195 49.1743 67.7004C48.2559 66.645 47.0436 66.1355 45.5375 66.1355C43.9211 66.1355 42.5986 66.7178 41.6068 67.8096ZM43.0762 68.2099C43.6272 67.2273 44.3619 66.7542 45.3538 66.7542C46.3456 66.7542 47.0803 67.2273 47.6314 68.1735C48.1824 69.0834 48.4396 70.3936 48.4396 72.0677C48.4396 73.7055 48.1457 74.9793 47.5946 75.9255C47.0436 76.8718 46.2722 77.3449 45.3171 77.3449C44.3619 77.3449 43.6272 76.8718 43.0762 75.9983C42.5252 75.1248 42.268 73.8875 42.268 72.2861C42.268 70.5392 42.5252 69.1926 43.0762 68.2099Z" fill="white"/>
<path fill-rule="evenodd" clip-rule="evenodd" d="M68.387 72.0677V71.5582L76.3953 71.2671V70.7939C76.3953 69.2654 75.9545 68.0644 75.1463 67.2273C74.3381 66.3902 73.1993 65.9535 71.7299 65.9535C70.0768 65.9535 68.7543 66.4994 67.7625 67.6276C66.7706 68.7559 66.2931 70.248 66.2931 72.1405C66.2931 73.9966 66.7339 75.416 67.6523 76.4351C68.5707 77.4541 69.8197 77.9636 71.436 77.9636C72.685 77.9636 73.7504 77.6361 74.5953 77.0538C75.4402 76.4715 76.028 75.598 76.3586 74.4698L75.8443 74.2878C75.5137 75.0885 75.0361 75.7072 74.4116 76.1439C73.7871 76.5806 73.0157 76.799 72.1707 76.799C70.9217 76.799 69.9666 76.3987 69.3421 75.598C68.7176 74.7973 68.387 73.6327 68.387 72.0677ZM74.4851 70.6848L68.387 70.9031C68.4237 69.5565 68.7544 68.5375 69.3421 67.8096C69.9299 67.0817 70.7381 66.7178 71.7667 66.7178C72.6483 66.7178 73.3096 67.0089 73.7871 67.664C74.2647 68.3191 74.4851 69.2654 74.4851 70.5028V70.6848Z" fill="white"/>
<path d="M81.7221 75.4524C81.7221 76.1075 81.869 76.5443 82.1629 76.7626C82.4568 76.9446 83.2283 77.0538 84.4773 77.0902V77.7453L84.3603 77.7389C83.7424 77.7047 83.1589 77.6725 82.6405 77.6725C82.0895 77.6361 81.5752 77.6361 81.0609 77.6361C80.5833 77.6361 80.069 77.6361 79.518 77.6725C79.2565 77.691 78.9856 77.7001 78.71 77.7094C78.4435 77.7183 78.1725 77.7274 77.9016 77.7453V77.0902C78.82 77.0174 79.371 76.9082 79.5547 76.7626C79.7384 76.6171 79.8486 76.1803 79.8486 75.4889V68.6467C79.8486 67.9916 79.7384 67.5913 79.518 67.4457C79.2976 67.3001 78.7465 67.1909 77.8281 67.1909V66.5358C78.1404 66.5176 78.4618 66.4903 78.7833 66.4631C79.1047 66.4358 79.4261 66.4085 79.7384 66.3903C80.0503 66.3539 80.3715 66.3176 80.6926 66.2812L80.6935 66.2811C81.0146 66.2447 81.3367 66.2083 81.6486 66.1719V69.3382C82.0895 68.2828 82.567 67.4821 83.1181 66.9726C83.6691 66.4267 84.2569 66.1719 84.8814 66.1719C85.3956 66.1719 85.7997 66.3539 86.1304 66.6814C86.461 67.009 86.6079 67.4457 86.6079 67.9552C86.6079 68.3192 86.5344 68.6103 86.3508 68.8287C86.1671 69.0471 85.9467 69.1562 85.6528 69.1562C85.3589 69.1562 85.1385 69.0471 84.9548 68.8651C84.8079 68.6831 84.6977 68.392 84.6977 68.028C84.6977 67.8824 84.6977 67.7005 84.7344 67.4821C84.7711 67.3005 84.8077 67.0826 84.8444 66.8647L84.8446 66.8634H84.7711C83.963 66.8634 83.265 67.4093 82.6405 68.5375C82.016 69.6294 81.6854 70.9396 81.6854 72.4681V75.4524H81.7221Z" fill="white"/>
<path d="M99.5754 76.7626C99.3917 76.6171 99.3183 76.1803 99.3183 75.4524H99.2081V70.4664C99.2081 68.9015 98.9142 67.8096 98.3631 67.1545C97.8121 66.4994 96.8937 66.1719 95.5712 66.1719C94.6529 66.1719 93.8447 66.3903 93.11 66.8634C92.3753 67.3365 91.7508 67.9916 91.2365 68.9015V66.1719C90.9245 66.2083 90.6034 66.2446 90.2822 66.281L90.2813 66.2811C89.9602 66.3174 89.6382 66.3539 89.3262 66.3903C89.014 66.4085 88.6925 66.4358 88.3711 66.4631C88.0497 66.4903 87.7282 66.5176 87.416 66.5358V67.1909C88.3344 67.1909 88.8854 67.3001 89.1058 67.4457C89.3262 67.5913 89.4364 67.9916 89.4364 68.6467V75.4889C89.4364 76.1803 89.3262 76.6171 89.1425 76.7626C88.9589 76.9082 88.4078 77.0174 87.4894 77.0902V77.7453C87.7367 77.7278 87.9755 77.7187 88.2058 77.71C88.4545 77.7005 88.6933 77.6914 88.9221 77.6725C89.363 77.6361 89.767 77.6361 90.1711 77.6361C90.5752 77.6361 90.9793 77.6361 91.4201 77.6725C91.8293 77.6725 92.2384 77.7039 92.6769 77.7375L92.7794 77.7453V77.0902C92.1916 77.0174 91.7875 76.9082 91.6038 76.7626C91.4201 76.6171 91.3467 76.1803 91.3467 75.4524V70.8668C91.3467 69.8841 91.7508 69.0107 92.5589 68.1736C93.3671 67.3365 94.2488 66.9362 95.2406 66.9362C95.9753 66.9362 96.5264 67.1909 96.857 67.7005C97.1876 68.21 97.3713 69.0107 97.3713 70.1025V75.4524C97.3713 76.1439 97.2611 76.5807 97.0774 76.7262C96.8937 76.8718 96.3427 76.981 95.461 77.0538V77.7089C95.7083 77.6914 95.9471 77.6823 96.1774 77.6735C96.426 77.6641 96.6648 77.655 96.8937 77.6361C97.3344 77.5997 97.7384 77.5997 98.1425 77.5997C98.5465 77.5997 98.951 77.5997 99.3917 77.6361C99.8008 77.6361 100.21 77.6674 100.648 77.701L100.751 77.7089V77.0538C100.126 77.0174 99.7591 76.9082 99.5754 76.7626Z" fill="white"/>
<path d="M124.188 73.3416C123.747 74.8701 122.976 75.9984 121.874 76.799C120.772 77.5633 119.413 77.9637 117.723 77.9637C116.584 77.9637 115.519 77.7817 114.564 77.4177C113.608 77.0538 112.764 76.5079 112.066 75.78C111.257 74.9429 110.633 73.9967 110.229 72.9048C109.825 71.813 109.604 70.612 109.604 69.2654C109.604 68.3556 109.715 67.5185 109.898 66.7178C110.082 65.9171 110.376 65.1529 110.706 64.4614C111.441 63.1148 112.396 62.0957 113.608 61.4042C114.821 60.7128 116.18 60.3488 117.723 60.3488C118.825 60.3488 119.854 60.5308 120.772 60.9311C121.69 61.3315 122.498 61.9138 123.196 62.678L123.454 61.477H124.041C124.022 61.7037 124.013 61.9402 124.004 62.1864C123.995 62.4144 123.986 62.6516 123.968 62.8964C123.968 63.1427 123.959 63.3889 123.95 63.6434C123.941 63.9152 123.931 64.1972 123.931 64.4978V65.4076C123.931 65.7352 123.931 66.2085 123.968 66.827H123.38C123.196 65.0437 122.645 63.6243 121.654 62.6417C120.662 61.6226 119.376 61.1131 117.833 61.1131C116.033 61.1131 114.637 61.8046 113.645 63.1512C112.653 64.4978 112.176 66.4267 112.176 68.9015C112.176 71.4491 112.727 73.4508 113.792 74.8701C114.894 76.2895 116.4 77.0174 118.347 77.0174C119.633 77.0174 120.698 76.6899 121.617 76.0348C122.498 75.3797 123.196 74.397 123.637 73.1232L124.188 73.3416Z" fill="white"/>
<path fill-rule="evenodd" clip-rule="evenodd" d="M127.972 67.8096C126.98 68.9014 126.503 70.3936 126.503 72.2497C126.503 73.9966 126.943 75.3796 127.825 76.4715C128.743 77.4905 129.919 78 131.462 78C133.078 78 134.401 77.4177 135.393 76.3259C136.384 75.234 136.899 73.7419 136.899 71.8858C136.899 70.1388 136.458 68.7195 135.54 67.7004C134.621 66.645 133.409 66.1355 131.903 66.1355C130.286 66.1355 128.964 66.7178 127.972 67.8096ZM129.441 68.2099C129.993 67.2273 130.727 66.7542 131.719 66.7542C132.711 66.7542 133.446 67.2273 133.997 68.1735C134.548 69.0834 134.805 70.3936 134.805 72.0677C134.805 73.7055 134.511 74.9793 133.96 75.9255C133.409 76.8718 132.637 77.3449 131.682 77.3449C130.727 77.3449 129.993 76.8718 129.441 75.9983C128.89 75.1248 128.633 73.8875 128.633 72.2861C128.633 70.5392 128.89 69.1926 129.441 68.2099Z" fill="white"/>
<path d="M150.491 76.799C150.27 76.6534 150.16 76.2167 150.16 75.4524V67.3729H153.54V66.7178H150.16V64.3158C150.16 63.0056 150.307 62.0229 150.674 61.4406C151.042 60.8583 151.63 60.5671 152.401 60.5671C152.732 60.5671 153.025 60.6035 153.283 60.7127C153.54 60.8219 153.723 60.9675 153.907 61.1858C153.723 61.3678 153.613 61.5862 153.54 61.7681C153.466 61.9501 153.43 62.1685 153.43 62.3869C153.43 62.678 153.54 62.8964 153.687 63.0783C153.87 63.2603 154.091 63.3331 154.348 63.3331C154.642 63.3331 154.899 63.2603 155.046 63.0419C155.23 62.86 155.303 62.5688 155.303 62.2049C155.303 61.5862 155.046 61.0403 154.495 60.6035C153.944 60.1668 153.246 59.9484 152.401 59.9484C151.079 59.9484 150.05 60.4216 149.352 61.3314C148.654 62.2413 148.287 63.5879 148.287 65.3348V66.7542H146.046V67.4093H148.287V75.416C148.287 76.1439 148.176 76.5806 147.956 76.7262C147.772 76.9082 147.111 77.0174 146.009 77.0538V77.7088C146.311 77.6913 146.596 77.6822 146.871 77.6734C147.166 77.6639 147.451 77.6549 147.736 77.6361C148.287 77.5997 148.801 77.5997 149.315 77.5997C149.829 77.5997 150.344 77.5997 150.932 77.6361C151.45 77.6361 152.033 77.6683 152.651 77.7024L152.768 77.7088V77.0538C151.483 77.0174 150.711 76.9446 150.491 76.799Z" fill="white"/>
<path fill-rule="evenodd" clip-rule="evenodd" d="M156.589 71.5582V72.0677C156.589 73.6327 156.92 74.7973 157.544 75.598C158.169 76.3987 159.124 76.799 160.373 76.799C161.218 76.799 161.989 76.5806 162.614 76.1439C163.238 75.7072 163.716 75.0885 164.046 74.2878L164.561 74.4698C164.23 75.598 163.642 76.4715 162.797 77.0538C161.952 77.6361 160.887 77.9636 159.638 77.9636C158.022 77.9636 156.773 77.4541 155.854 76.4351C154.936 75.416 154.495 73.9966 154.495 72.1405C154.495 70.248 154.973 68.7559 155.965 67.6276C156.956 66.4994 158.279 65.9535 159.932 65.9535C161.401 65.9535 162.54 66.3902 163.348 67.2273C164.157 68.0644 164.597 69.2654 164.597 70.7939V71.2671L156.589 71.5582ZM156.589 70.9031L162.687 70.6848V70.5028C162.687 69.2654 162.467 68.3191 161.989 67.664C161.512 67.0089 160.85 66.7178 159.969 66.7178C158.94 66.7178 158.132 67.0817 157.544 67.8096C156.956 68.5375 156.626 69.5565 156.589 70.9031Z" fill="white"/>
<path fill-rule="evenodd" clip-rule="evenodd" d="M168.748 72.0677V71.5582L176.757 71.2671V70.7939C176.757 69.2654 176.316 68.0644 175.508 67.2273C174.699 66.3902 173.561 65.9535 172.091 65.9535C170.438 65.9535 169.116 66.4994 168.124 67.6276C167.132 68.7559 166.654 70.248 166.654 72.1405C166.654 73.9966 167.095 75.416 168.014 76.4351C168.932 77.4541 170.181 77.9636 171.797 77.9636C173.046 77.9636 174.112 77.6361 174.957 77.0538C175.802 76.4715 176.389 75.598 176.72 74.4698L176.206 74.2878C175.875 75.0885 175.397 75.7072 174.773 76.1439C174.148 76.5806 173.377 76.799 172.532 76.799C171.283 76.799 170.328 76.3987 169.703 75.598C169.079 74.7973 168.748 73.6327 168.748 72.0677ZM174.846 70.6848L168.748 70.9031C168.822 69.5565 169.152 68.5375 169.703 67.8096C170.291 67.0817 171.099 66.7178 172.128 66.7178C173.01 66.7178 173.671 67.0089 174.148 67.664C174.626 68.3191 174.846 69.2654 174.846 70.5028V70.6848Z" fill="white"/>
</svg>
