<svg width="424" height="172" viewBox="0 0 424 172" fill="none" xmlns="http://www.w3.org/2000/svg">
<path d="M172.539 85.5509C172.539 89.7241 173.181 92.212 174.385 93.0948C175.67 93.8973 179.764 94.3788 186.749 94.4591L186.669 98.1508C183.056 97.91 179.684 97.7495 176.553 97.6693L176.057 97.6565L176.054 97.6564C173.106 97.5807 170.306 97.5087 167.721 97.5087C164.912 97.5087 162.022 97.589 159.132 97.6692L159.13 97.6693C156.16 97.7495 153.029 97.91 149.657 98.1508L149.576 94.4591C155.598 94.1381 159.211 93.5763 160.335 92.6935C161.459 91.8107 162.021 89.4834 162.021 85.5509V41.1704H149.817V37.6392H162.021V29.694C162.021 20.0635 163.948 12.6802 167.802 7.62414C171.655 2.56813 177.195 0 184.501 0C189.078 0 192.932 1.20381 195.902 3.53118C198.873 5.85855 200.398 8.82795 200.398 12.4394C200.398 14.4457 199.917 15.9706 199.034 17.0941C198.15 18.2177 196.866 18.7795 195.26 18.7795C193.735 18.7795 192.53 18.2979 191.647 17.4151C190.764 16.4521 190.362 15.2483 190.362 13.6432C190.362 12.4394 190.603 11.3158 191.005 10.1923C191.406 9.14895 192.129 8.0254 193.012 7.06235C192.048 5.9388 190.924 5.05601 189.56 4.49424C188.195 3.93246 186.589 3.69169 184.823 3.69169C180.487 3.69169 177.436 5.29676 175.429 8.58718C173.502 11.8776 172.539 17.1744 172.539 24.4775V37.7194H191.005V41.2506H172.539V85.5509Z" fill="white"/>
<path d="M34.8449 41.9729C30.7787 46.4359 26.7916 49.8701 22.9623 52.1182V18.2177C22.9623 13.5629 23.5243 10.5935 24.7287 9.38972C25.933 8.18591 28.6628 7.54388 32.7574 7.54388H33.6406V3.21016C31.0714 3.37067 28.4219 3.53118 25.6118 3.61144C22.8018 3.69169 19.8311 3.77193 16.6999 3.77193C13.5687 3.77193 10.598 3.69169 7.86822 3.61144C5.13843 3.53118 2.48892 3.37067 0 3.21016V7.54388H0.883171C5.05814 7.54388 7.70764 8.18593 8.91195 9.30948C10.1163 10.5133 10.7586 13.4827 10.7586 18.2979V83.063C10.7586 87.8782 10.1163 90.8476 8.91195 92.0515C7.70764 93.2553 5.05814 93.8171 0.963464 93.8171H0.0802927V98.0705C3.37209 97.8298 6.42305 97.6693 9.15283 97.589L9.39488 97.5819H9.39579C12.0398 97.5041 14.6085 97.4285 17.1013 97.4285C19.5142 97.4285 22.078 97.5039 24.7196 97.5817L24.9695 97.589C27.6993 97.7495 30.5094 97.91 33.5603 98.0705V93.8171H32.6772C28.5825 93.8171 25.933 93.2553 24.7287 92.0515C23.5243 90.8476 22.882 87.798 22.882 83.063V57.3817L29.2248 52.8072L53.3111 86.4337L53.3914 86.514C54.7563 88.2795 55.4789 89.7241 55.4789 90.7674C55.4789 91.8107 54.9972 92.6132 54.114 93.0948C53.2308 93.5763 51.8659 93.8171 49.939 93.8171V98.0705C52.8294 97.8298 55.6395 97.6693 58.289 97.589L58.7441 97.5752H58.7451C61.225 97.4998 63.5708 97.4285 65.9163 97.4285C68.1824 97.4285 70.5196 97.4995 72.9948 97.5748L73.4634 97.589C76.1129 97.6693 78.923 97.8298 81.8133 98.0705V93.8171H81.4119C78.6821 93.8171 76.1931 93.175 74.0254 91.8909C71.7773 90.6069 69.6898 88.6005 67.6024 85.7916L37.3338 44.9423C43.2751 38.2812 49.377 31.0583 55.7198 23.354C62.0625 15.6496 65.6755 11.3961 66.5586 10.5935C67.9235 9.38972 69.3687 8.50693 70.9744 7.94515C72.5802 7.38337 74.8283 6.98211 77.6383 6.8216V3.21016C75.5508 3.37067 73.3831 3.53118 71.135 3.61144C68.8067 3.69169 66.398 3.77193 63.7486 3.77193C61.099 3.77193 58.6101 3.69169 56.3621 3.61144C54.114 3.53118 51.8659 3.37067 49.7785 3.21016V6.90186C52.8294 6.98211 54.8366 7.30313 55.6395 7.7044C56.4424 8.18593 56.8438 8.98847 56.8438 10.112C56.8438 10.9948 56.4423 12.1986 55.5592 13.884C54.676 15.5693 53.2308 17.8164 51.2236 20.7056C44.3992 30.4163 38.9396 37.4787 34.8449 41.9729Z" fill="white"/>
<path d="M312.56 36.0341C311.677 36.0341 310.714 35.9538 309.831 35.6328C307.984 35.0711 306.459 34.0278 305.254 32.5029C304.612 31.7004 304.13 30.8176 303.729 29.8545C303.247 28.4902 302.926 27.0456 303.167 25.6011C303.327 24.7183 303.568 23.8355 303.889 22.9527C304.211 22.0699 304.612 21.1871 305.013 20.3845C305.429 19.4941 305.889 18.6475 306.36 17.7799C306.526 17.4746 306.693 17.1667 306.86 16.8534C307.663 15.4088 308.546 13.884 309.429 12.4394C310.473 10.7541 311.517 9.14897 312.56 7.54389C312.641 7.38338 312.801 7.38338 312.882 7.54389C313.363 8.26628 313.825 8.98868 314.287 9.71107C314.749 10.4332 315.21 11.1554 315.692 11.8776C315.834 12.1109 315.979 12.3463 316.125 12.5834L316.126 12.5849C316.883 13.8157 317.668 15.0938 318.341 16.3718C319.064 17.6559 319.706 18.94 320.348 20.3043C320.83 21.3476 321.312 22.3909 321.713 23.4342C322.195 24.7985 322.516 26.1628 322.275 27.6074C322.115 28.9717 321.633 30.2558 320.991 31.3794C320.268 32.5832 319.385 33.5462 318.181 34.3488C317.458 34.8303 316.735 35.2316 315.933 35.4723C314.809 35.8736 313.765 36.1144 312.56 36.0341Z" fill="white"/>
<path d="M313.685 88.2795C311.838 81.2974 314.166 76.5624 317.94 71.6669C320.21 68.7885 322.71 66.101 325.228 63.3937L325.229 63.3927L325.232 63.3894C326.363 62.173 327.498 60.9526 328.618 59.7091C329.079 59.2132 329.543 58.7213 330.007 58.2299L330.01 58.2274L330.013 58.2237C331.65 56.4899 333.283 54.7616 334.72 52.8875C338.253 48.313 339.136 43.0965 337.369 37.5589C335.924 32.9844 333.596 28.9717 329.582 25.4405C329.656 33.8235 325.408 39.8749 321.15 45.9402C320.802 46.4364 320.454 46.9326 320.108 47.4302C319.432 48.383 318.748 49.3321 318.065 50.2815C315.581 53.7301 313.095 57.1827 310.955 60.8326C307.502 66.5307 305.897 72.7905 307.583 79.5318C308.546 83.1433 310.232 85.4706 313.685 88.2795Z" fill="white"/>
<path d="M328.538 99.6756C329.421 99.9966 330.384 100.077 331.268 100.077C332.392 100.157 333.435 99.9164 334.64 99.5151C335.443 99.2743 336.165 98.8731 336.888 98.3916C338.092 97.589 338.975 96.626 339.698 95.4221C340.34 94.2986 340.822 93.0145 340.982 91.6502C341.223 90.2056 340.902 88.8413 340.42 87.477C340.019 86.4338 339.537 85.3907 339.056 84.3475C338.413 82.9832 337.771 81.6987 337.048 80.4146C336.375 79.1361 335.589 77.8576 334.832 76.6264C334.686 76.3892 334.542 76.1537 334.399 75.9204C333.917 75.1981 333.455 74.4759 332.994 73.7536C332.532 73.0313 332.07 72.309 331.589 71.5867C331.508 71.4262 331.348 71.4262 331.268 71.5867L331.265 71.5908C330.222 73.1945 329.179 74.7983 328.136 76.4822C327.253 77.9267 326.37 79.4516 325.567 80.8962C325.401 81.2082 325.234 81.5148 325.069 81.8189L325.068 81.8214L325.067 81.823C324.596 82.6903 324.136 83.5371 323.721 84.4273C323.319 85.2299 322.918 86.1127 322.597 86.9955C322.275 87.8783 322.035 88.761 321.874 89.6438C321.633 91.0884 321.954 92.533 322.436 93.8973C322.837 94.8604 323.319 95.7432 323.961 96.5457C325.166 98.0706 326.691 99.1138 328.538 99.6756Z" fill="white"/>
<path fill-rule="evenodd" clip-rule="evenodd" d="M112.323 97.0272C115.695 95.3419 119.067 92.7738 122.439 89.3229C122.76 92.533 123.804 95.0209 125.65 96.7062C127.497 98.3915 129.986 99.2743 133.117 99.2743C136.248 99.2743 138.978 98.4718 141.226 96.947C143.474 95.3419 145.321 93.0145 146.846 89.8846L144.679 88.6005C143.956 89.8846 143.073 90.8476 142.109 91.4897C141.146 92.1317 139.942 92.4527 138.577 92.4527C136.489 92.4527 135.044 91.8909 134.241 90.6871C133.438 89.4833 133.037 87.0757 133.037 83.5445C133.037 83.063 133.037 82.1802 133.117 80.9764C133.198 79.7726 133.198 78.8898 133.198 78.1675L133.76 57.1409V55.5358C133.76 47.9117 132.073 42.4544 128.862 39.0837C125.57 35.7131 120.351 34.0277 113.206 34.0277C107.104 34.0277 101.805 35.7131 97.1483 39.2443C92.5719 42.7754 90.2435 46.6276 90.2435 50.8811C90.2435 52.4059 90.5647 53.6097 91.2873 54.4925C92.0098 55.3753 92.9733 55.7766 94.0973 55.7766C95.8637 55.7766 97.2285 55.0543 98.3526 53.6097C99.3963 52.0849 99.9583 50.1588 99.9583 47.8315C99.9583 47.1092 99.8781 45.6646 99.6372 43.6582C99.6036 43.3893 99.584 43.1485 99.5668 42.9359C99.5428 42.641 99.5233 42.4002 99.4766 42.2137C101.243 40.7691 103.17 39.6455 105.257 38.9232C107.345 38.201 109.593 37.8799 112.162 37.8799C116.176 37.8799 119.067 39.0837 120.753 41.5716C122.439 43.9792 123.242 48.3932 123.242 54.7333V56.9002L123.081 63.3205C121.154 63.802 118.505 64.444 115.052 65.2466C107.265 67.0924 102.287 68.3765 100.119 69.0185C95.5425 70.4631 92.1704 72.4695 90.0829 75.0376C87.9955 77.6057 86.9517 80.9764 86.9517 85.1496C86.9517 89.7241 88.3166 93.2553 90.8858 95.7432C93.455 98.2311 97.068 99.5151 101.725 99.5151C105.418 99.5151 108.951 98.6323 112.323 97.0272ZM101.323 73.6733C104.294 71.5867 111.52 69.3396 123.001 67.0122L122.6 83.4643C120.351 86.9152 117.943 89.4031 115.374 91.0884C112.804 92.7737 109.994 93.5763 106.863 93.5763C103.812 93.5763 101.484 92.6132 99.6372 90.6871C97.7906 88.761 96.9074 86.1929 96.9074 82.9025C96.9074 78.8096 98.3526 75.7599 101.323 73.6733Z" fill="white"/>
<path d="M216.536 93.0948C215.332 92.212 214.69 89.7241 214.69 85.5509H214.77V41.2506H233.236V37.7194H214.77V24.4775C214.77 17.1744 215.733 11.8776 217.66 8.58718C219.668 5.29676 222.718 3.69169 227.054 3.69169C228.82 3.69169 230.426 3.93246 231.791 4.49424C233.156 5.05601 234.28 5.9388 235.243 7.06235C234.36 8.0254 233.638 9.14895 233.236 10.1923C232.835 11.3158 232.594 12.4394 232.594 13.6432C232.594 15.2483 232.995 16.4521 233.878 17.4151C234.762 18.2979 235.966 18.7795 237.491 18.7795C239.097 18.7795 240.382 18.2177 241.265 17.0941C242.148 15.9706 242.63 14.4457 242.63 12.4394C242.63 8.82795 241.104 5.85855 238.134 3.53118C235.163 1.20381 231.309 0 226.733 0C219.427 0 213.887 2.56813 210.033 7.62414C206.179 12.6802 204.252 20.0635 204.252 29.694V37.6392H192.048V41.1704H204.172V85.5509C204.172 89.4834 203.61 91.8107 202.486 92.6935C201.362 93.5763 197.749 94.1381 191.727 94.4591L191.808 98.1508C195.18 97.91 198.311 97.7495 201.282 97.6693L201.283 97.6692C204.173 97.589 207.063 97.5087 209.872 97.5087C212.458 97.5087 215.259 97.5807 218.208 97.6565L218.704 97.6693C221.835 97.7495 225.207 97.91 228.82 98.1508L228.901 94.4591C221.916 94.3788 217.821 93.8973 216.536 93.0948Z" fill="white"/>
<path fill-rule="evenodd" clip-rule="evenodd" d="M249.775 64.123V67.0122C249.775 75.6796 251.542 82.1802 254.994 86.514C258.447 90.9279 263.665 93.0948 270.57 93.0948C275.227 93.0948 279.321 91.891 282.774 89.5636C286.226 87.2362 288.795 83.7853 290.481 79.3713L293.291 80.4949C291.445 86.7547 288.233 91.4897 283.577 94.7801C278.92 98.0705 273.139 99.7559 266.154 99.7559C257.322 99.7559 250.418 96.947 245.44 91.2489C240.462 85.6311 238.053 77.686 238.053 67.574C238.053 57.1409 240.703 48.8747 246.082 42.7754C251.461 36.5959 258.687 33.5462 267.76 33.5462C275.789 33.5462 281.971 35.8736 286.467 40.6086C290.963 45.3436 293.211 51.8442 293.211 60.2708C293.211 60.5117 293.211 60.9933 293.131 61.5549C293.051 62.1969 293.051 62.5982 293.051 62.9192L249.775 64.123ZM249.775 60.5116L283.175 59.2275V58.104C283.175 51.2021 281.891 45.9856 279.402 42.4544C276.913 38.9232 273.139 37.1576 268.242 37.1576C262.621 37.1576 258.206 39.164 254.994 43.257C251.863 47.2697 250.177 53.048 249.775 60.5116Z" fill="white"/>
<path d="M417.577 92.7738C416.694 91.9712 416.212 89.5636 416.212 85.5509H416.132V57.462C416.132 48.8748 414.606 42.7754 411.555 39.2443C408.504 35.6328 403.366 33.8672 396.22 33.8672C391.243 33.8672 386.746 35.1513 382.732 37.6392C378.718 40.1271 375.265 43.899 372.375 48.8748V33.8672C369.209 34.2987 366.044 34.6658 362.936 35.0261C362.575 35.0679 362.216 35.1096 361.857 35.1513C358.517 35.5395 355.102 35.7775 351.757 36.0106L351.42 36.0341V39.7258C356.317 39.7258 359.368 40.2073 360.573 41.0901C361.697 42.0531 362.339 44.3003 362.339 47.8315V85.5509C362.339 89.4031 361.857 91.7305 360.733 92.6133C359.609 93.496 356.639 94.1381 351.661 94.4591V98.1508C354.551 97.91 357.12 97.7495 359.529 97.6693L359.996 97.6536C362.229 97.5789 364.326 97.5087 366.353 97.5087C368.601 97.5087 370.929 97.589 373.257 97.6692L373.258 97.6693C375.586 97.7495 378.075 97.91 380.645 98.1508V94.4591C377.272 94.2183 375.105 93.5763 374.141 92.7738C373.178 91.891 372.696 89.4834 372.696 85.5509V60.1906C372.696 54.8136 374.864 49.9181 379.28 45.3436C383.615 40.7691 388.593 38.522 393.972 38.522C398.067 38.522 401.038 39.8863 402.884 42.6952C404.731 45.5041 405.694 49.9181 405.694 56.0174V85.5509C405.694 89.4031 405.132 91.7305 404.089 92.6133C402.965 93.4158 400.074 94.0578 395.177 94.3789V98.0705C398.067 97.8298 400.717 97.6693 403.045 97.589L403.046 97.589C405.374 97.5087 407.702 97.4285 409.869 97.4285C411.962 97.4285 414.129 97.5033 416.372 97.5807L416.614 97.589C418.942 97.6693 421.431 97.8298 424 98.0705V94.3789C420.628 94.1381 418.54 93.5763 417.577 92.7738Z" fill="white"/>
<path d="M310.232 166.382C310.232 168.068 310.473 169.031 310.954 169.352C311.436 169.673 313.122 169.833 315.932 169.913V171.358L315.677 171.344C314.326 171.269 313.051 171.197 311.918 171.197C310.634 171.117 309.51 171.117 308.386 171.117H308.384C307.261 171.117 306.137 171.117 304.933 171.197C304.311 171.239 303.689 171.259 303.044 171.28C302.441 171.299 301.819 171.319 301.159 171.358V169.913C303.568 169.833 305.013 169.592 305.415 169.191C305.896 168.87 306.137 167.907 306.137 166.302V148.646H301.24V147.202H306.137V144.072C306.137 140.219 306.94 137.25 308.466 135.244C309.991 133.237 312.239 132.194 315.129 132.194C316.976 132.194 318.501 132.675 319.706 133.639C320.91 134.602 321.472 135.805 321.472 137.17C321.472 137.972 321.312 138.614 320.91 139.016C320.589 139.497 320.027 139.658 319.385 139.658C318.823 139.658 318.341 139.497 317.939 139.096C317.618 138.695 317.377 138.213 317.377 137.571C317.377 137.089 317.458 136.608 317.618 136.207C317.779 135.805 318.02 135.324 318.421 134.923C318.02 134.441 317.618 134.12 317.056 133.879C316.494 133.639 315.852 133.558 315.129 133.558C313.443 133.558 312.159 134.2 311.356 135.484C310.553 136.768 310.232 138.935 310.232 141.824V147.121H317.618V148.566H310.232V166.382Z" fill="white"/>
<path fill-rule="evenodd" clip-rule="evenodd" d="M132.154 137.732C132.154 136.287 131.913 135.404 131.431 135.083C130.95 134.682 129.745 134.521 127.738 134.521V133.077L127.74 133.077C129.184 132.997 130.629 132.916 131.993 132.756C132.676 132.676 133.378 132.595 134.081 132.515C134.783 132.435 135.486 132.355 136.168 132.274V166.382C136.168 167.747 136.409 168.629 136.811 168.95C137.212 169.271 138.095 169.512 139.54 169.592V171.037C137.854 171.198 136.489 171.358 135.365 171.519C134.868 171.59 134.386 171.645 133.92 171.698L133.92 171.699C133.333 171.766 132.771 171.83 132.234 171.92V168.71C131.11 169.753 129.906 170.556 128.541 171.117C127.256 171.679 125.811 171.92 124.286 171.92C121.154 171.92 118.666 170.796 116.899 168.629C115.133 166.463 114.169 163.413 114.169 159.561C114.169 155.387 115.213 152.017 117.22 149.529C119.228 147.041 121.957 145.837 125.41 145.837C126.694 145.837 127.818 146.078 128.942 146.479C130.066 146.881 131.11 147.603 132.154 148.486V137.732ZM132.074 166.623V150.653C131.271 149.529 130.388 148.726 129.424 148.165C128.461 147.603 127.417 147.362 126.213 147.362C123.804 147.362 121.957 148.405 120.673 150.412C119.388 152.418 118.746 155.307 118.746 159.079C118.746 162.691 119.308 165.419 120.512 167.185C121.716 168.95 123.483 169.914 125.811 169.914C127.015 169.914 128.14 169.673 129.183 169.111C130.307 168.629 131.19 167.747 132.074 166.623Z" fill="white"/>
<path d="M45.4427 164.617V163.894L45.6836 135.966H46.0851L58.5297 170.957H59.5734L72.0983 135.966H72.2589V165.419C72.2589 167.265 72.018 168.469 71.5363 168.95C71.0546 169.432 70.0108 169.673 68.4051 169.673H68.0839V171.358C68.7048 171.319 69.307 171.299 69.8904 171.28C70.5139 171.259 71.1162 171.239 71.6969 171.198C72.8206 171.117 73.8642 171.117 74.9077 171.117H74.9091C75.9526 171.117 76.9961 171.117 78.1199 171.198C79.1732 171.198 80.2266 171.268 81.346 171.343L81.5723 171.358V169.673H81.1708C79.5651 169.673 78.5213 169.432 78.0396 168.95C77.5579 168.469 77.317 167.265 77.317 165.339V139.497C77.317 137.651 77.5579 136.448 78.0396 135.966C78.5213 135.484 79.5651 135.244 81.1708 135.244H81.5723V133.478C80.7695 133.558 79.9664 133.639 79.0834 133.639C78.2805 133.719 77.317 133.719 76.3536 133.719C75.8499 133.719 75.3682 133.697 74.9084 133.676C74.4887 133.657 74.0872 133.639 73.7041 133.639C73.3127 133.6 72.9212 133.579 72.5391 133.56C72.1375 133.539 71.746 133.519 71.3757 133.478L60.6974 163.413L50.0192 133.478C49.2164 133.558 48.4133 133.639 47.5302 133.639C46.7273 133.719 45.7639 133.719 44.8004 133.719C44.2968 133.719 43.7931 133.697 43.3124 133.676C42.8735 133.657 42.4538 133.639 42.0707 133.639C41.6511 133.601 41.2497 133.58 40.8664 133.561C40.4428 133.54 40.0414 133.52 39.662 133.478V135.244H39.9832C41.5889 135.244 42.6327 135.484 43.1144 135.966C43.5961 136.448 43.837 137.491 43.837 139.096V139.497L43.5961 163.894V163.975C43.5158 167.827 42.0707 169.753 39.1 169.753H38.7789V171.438C39.279 171.4 39.7607 171.38 40.2239 171.361C40.7273 171.34 41.2094 171.32 41.6692 171.278C42.6327 171.198 43.5158 171.198 44.3187 171.198C45.2019 171.198 46.0851 171.198 46.9682 171.278C47.8512 171.278 48.8144 171.358 49.7776 171.438L49.7783 169.753H49.5374C47.8514 169.753 46.8076 169.432 46.2456 168.79C45.6836 168.228 45.4427 166.784 45.4427 164.617Z" fill="white"/>
<path fill-rule="evenodd" clip-rule="evenodd" d="M89.8416 149.529C87.6738 151.936 86.6301 155.227 86.6301 159.32C86.6301 163.172 87.5935 166.222 89.5205 168.629C91.5276 170.876 94.0969 172 97.4689 172C101.002 172 103.892 170.716 106.06 168.308C108.227 165.901 109.352 162.61 109.352 158.517C109.352 154.665 108.388 151.535 106.381 149.288C104.374 146.961 101.724 145.837 98.4324 145.837C94.8997 145.837 92.0094 147.121 89.8416 149.529ZM93.0531 150.412C94.2574 148.245 95.8632 147.202 98.0309 147.202C100.199 147.202 101.804 148.245 103.009 150.331C104.213 152.338 104.775 155.227 104.775 158.919C104.775 162.53 104.133 165.339 102.929 167.426C101.724 169.512 100.038 170.555 97.9507 170.555C95.8632 170.555 94.2574 169.512 93.0531 167.586C91.8488 165.66 91.2868 162.931 91.2868 159.4C91.2868 155.548 91.8488 152.579 93.0531 150.412Z" fill="white"/>
<path fill-rule="evenodd" clip-rule="evenodd" d="M148.372 158.919V157.795L165.874 157.153V156.11C165.874 152.739 164.911 150.091 163.145 148.245C161.378 146.399 158.889 145.436 155.678 145.436C152.065 145.436 149.174 146.64 147.007 149.128C144.839 151.615 143.795 154.906 143.795 159.079C143.795 163.172 144.759 166.302 146.766 168.549C148.773 170.796 151.503 171.92 155.035 171.92C157.765 171.92 160.094 171.197 161.94 169.913C163.787 168.629 165.071 166.703 165.794 164.215L164.67 163.814C163.947 165.58 162.904 166.944 161.539 167.907C160.174 168.87 158.488 169.352 156.641 169.352C153.911 169.352 151.824 168.469 150.459 166.703C149.094 164.938 148.372 162.37 148.372 158.919ZM161.699 155.869L148.372 156.35C148.452 153.381 149.174 151.134 150.459 149.529C151.744 147.924 153.51 147.121 155.758 147.121C157.685 147.121 159.13 147.763 160.174 149.208C161.218 150.652 161.699 152.739 161.699 155.468V155.869Z" fill="white"/>
<path d="M177.516 166.382C177.516 167.827 177.838 168.79 178.48 169.271C179.122 169.673 180.808 169.913 183.538 169.994V171.438L183.282 171.424C181.932 171.349 180.657 171.278 179.524 171.278C178.319 171.198 177.195 171.198 176.071 171.198C175.027 171.198 173.903 171.198 172.699 171.278C172.128 171.319 171.536 171.339 170.933 171.359C170.351 171.379 169.758 171.399 169.166 171.438V169.994C171.174 169.833 172.378 169.592 172.779 169.271C173.181 168.95 173.422 167.987 173.422 166.463V151.375C173.422 149.93 173.181 149.047 172.699 148.726C172.217 148.405 171.013 148.165 169.006 148.165V146.72C169.688 146.68 170.391 146.62 171.093 146.56C171.796 146.499 172.498 146.439 173.181 146.399C173.863 146.319 174.564 146.239 175.266 146.159L175.268 146.158L175.27 146.158C175.972 146.078 176.674 145.998 177.356 145.918V152.9C178.319 150.572 179.363 148.807 180.567 147.683C181.772 146.479 183.056 145.918 184.421 145.918C185.545 145.918 186.428 146.319 187.151 147.041C187.873 147.763 188.195 148.726 188.195 149.85C188.195 150.653 188.034 151.295 187.633 151.776C187.231 152.258 186.749 152.498 186.107 152.498C185.465 152.498 184.983 152.258 184.582 151.856C184.261 151.455 184.02 150.813 184.02 150.01C184.02 149.689 184.02 149.288 184.1 148.807C184.18 148.406 184.26 147.926 184.34 147.445L184.341 147.442H184.18C182.414 147.442 180.888 148.646 179.524 151.134C178.159 153.542 177.436 156.431 177.436 159.802V166.382H177.516Z" fill="white"/>
<path d="M216.536 169.271C216.135 168.95 215.974 167.987 215.974 166.382H215.733V155.388C215.733 151.937 215.091 149.529 213.886 148.084C212.682 146.64 210.675 145.918 207.785 145.918C205.777 145.918 204.011 146.399 202.405 147.442C200.8 148.486 199.435 149.93 198.311 151.937V145.918C197.629 145.998 196.927 146.078 196.225 146.158L196.223 146.158L196.222 146.158C195.52 146.239 194.817 146.319 194.136 146.399C193.453 146.439 192.751 146.499 192.048 146.56C191.346 146.62 190.643 146.68 189.961 146.72V148.165C191.968 148.165 193.172 148.405 193.654 148.726C194.136 149.047 194.376 149.93 194.376 151.375V166.463C194.376 167.987 194.136 168.95 193.734 169.271C193.333 169.592 192.128 169.833 190.121 169.994V171.438C190.662 171.4 191.184 171.38 191.687 171.36C192.23 171.34 192.752 171.32 193.253 171.278C194.216 171.198 195.099 171.198 195.982 171.198C196.865 171.198 197.749 171.198 198.712 171.278C199.606 171.278 200.5 171.347 201.459 171.421L201.683 171.438V169.994C200.398 169.833 199.515 169.592 199.113 169.271C198.712 168.95 198.551 167.987 198.551 166.382V156.27C198.551 154.103 199.435 152.177 201.201 150.331C202.967 148.486 204.894 147.603 207.062 147.603C208.668 147.603 209.872 148.165 210.595 149.288C211.317 150.412 211.719 152.177 211.719 154.585V166.382C211.719 167.907 211.478 168.87 211.076 169.191C210.675 169.512 209.471 169.753 207.544 169.914V171.358C208.084 171.319 208.606 171.299 209.109 171.28C209.653 171.259 210.175 171.239 210.675 171.198C211.638 171.117 212.521 171.117 213.404 171.117H213.405C214.288 171.117 215.171 171.117 216.135 171.198C217.029 171.198 217.923 171.267 218.881 171.341L219.105 171.358V169.914C217.74 169.833 216.937 169.592 216.536 169.271Z" fill="white"/>
<path d="M270.329 161.728C269.366 165.098 267.68 167.586 265.271 169.352C262.862 171.037 259.892 171.92 256.198 171.92C253.709 171.92 251.381 171.519 249.294 170.716C247.206 169.914 245.36 168.71 243.834 167.105C242.068 165.259 240.703 163.172 239.82 160.765C238.937 158.357 238.455 155.709 238.455 152.739C238.455 150.733 238.696 148.887 239.097 147.121C239.499 145.356 240.141 143.67 240.863 142.146C242.469 139.176 244.557 136.929 247.206 135.404C249.856 133.879 252.826 133.077 256.198 133.077C258.607 133.077 260.855 133.478 262.862 134.361C264.869 135.244 266.636 136.528 268.161 138.213L268.723 135.565H270.008C269.966 136.065 269.946 136.586 269.925 137.129V137.13C269.906 137.633 269.886 138.155 269.847 138.695C269.847 139.238 269.829 139.781 269.809 140.342L269.809 140.343C269.788 140.943 269.767 141.563 269.767 142.226V144.232C269.767 144.954 269.767 145.998 269.847 147.362H268.563C268.161 143.43 266.957 140.3 264.789 138.133C262.621 135.886 259.811 134.762 256.439 134.762C252.505 134.762 249.454 136.287 247.286 139.256C245.119 142.226 244.075 146.479 244.075 151.937C244.075 157.554 245.279 161.968 247.608 165.098C250.016 168.228 253.308 169.833 257.563 169.833C260.373 169.833 262.702 169.111 264.709 167.666C266.636 166.222 268.161 164.055 269.125 161.246L270.329 161.728Z" fill="white"/>
<path fill-rule="evenodd" clip-rule="evenodd" d="M278.599 149.529C276.431 151.936 275.387 155.227 275.387 159.32C275.387 163.172 276.351 166.222 278.278 168.629C280.285 170.876 282.854 172 286.226 172C289.759 172 292.649 170.716 294.817 168.308C296.985 165.901 298.109 162.61 298.109 158.517C298.109 154.665 297.145 151.535 295.138 149.288C293.131 146.961 290.481 145.837 287.19 145.837C283.657 145.837 280.767 147.121 278.599 149.529ZM281.81 150.412C283.015 148.245 284.62 147.202 286.788 147.202C288.956 147.202 290.562 148.245 291.766 150.331C292.97 152.338 293.532 155.227 293.532 158.919C293.532 162.53 292.89 165.339 291.686 167.426C290.481 169.512 288.795 170.555 286.708 170.555C284.62 170.555 283.015 169.512 281.81 167.586C280.606 165.66 280.044 162.931 280.044 159.4C280.044 155.548 280.606 152.579 281.81 150.412Z" fill="white"/>
<path d="M327.815 169.352C327.333 169.031 327.092 168.068 327.092 166.382V148.566H334.479V147.121H327.092V141.824C327.092 138.935 327.413 136.768 328.216 135.484C329.019 134.2 330.304 133.558 331.99 133.558C332.712 133.558 333.355 133.639 333.917 133.879C334.479 134.12 334.88 134.441 335.282 134.923C334.88 135.324 334.639 135.805 334.479 136.207C334.318 136.608 334.238 137.089 334.238 137.571C334.238 138.213 334.479 138.695 334.8 139.096C335.201 139.497 335.683 139.658 336.245 139.658C336.887 139.658 337.449 139.497 337.771 139.016C338.172 138.614 338.333 137.972 338.333 137.17C338.333 135.805 337.771 134.602 336.566 133.639C335.362 132.675 333.836 132.194 331.99 132.194C329.099 132.194 326.851 133.237 325.326 135.244C323.801 137.25 322.998 140.219 322.998 144.072V147.202H318.1V148.646H322.998V166.302C322.998 167.907 322.757 168.87 322.275 169.191C321.874 169.592 320.428 169.833 318.02 169.913V171.358C318.679 171.319 319.302 171.299 319.904 171.28C320.549 171.259 321.171 171.239 321.793 171.197C322.997 171.117 324.121 171.117 325.245 171.117H325.246C326.37 171.117 327.494 171.117 328.778 171.197C329.911 171.197 331.186 171.269 332.537 171.344L332.793 171.358V169.913C329.983 169.833 328.297 169.673 327.815 169.352Z" fill="white"/>
<path fill-rule="evenodd" clip-rule="evenodd" d="M341.143 157.795V158.919C341.143 162.37 341.866 164.938 343.231 166.703C344.595 168.469 346.683 169.352 349.413 169.352C351.259 169.352 352.945 168.87 354.31 167.907C355.675 166.944 356.719 165.58 357.442 163.814L358.566 164.215C357.843 166.703 356.558 168.629 354.712 169.913C352.865 171.197 350.537 171.92 347.807 171.92C344.274 171.92 341.544 170.796 339.537 168.549C337.53 166.302 336.567 163.172 336.567 159.079C336.567 154.906 337.61 151.615 339.778 149.128C341.946 146.64 344.836 145.436 348.449 145.436C351.661 145.436 354.15 146.399 355.916 148.245C357.682 150.091 358.646 152.739 358.646 156.11V157.153L341.143 157.795ZM341.143 156.35L354.471 155.869V155.468C354.471 152.739 353.989 150.652 352.945 149.208C351.902 147.763 350.456 147.121 348.53 147.121C346.281 147.121 344.515 147.924 343.231 149.529C341.946 151.134 341.223 153.381 341.143 156.35Z" fill="white"/>
<path fill-rule="evenodd" clip-rule="evenodd" d="M367.718 158.919V157.795L385.221 157.153V156.11C385.221 152.739 384.257 150.091 382.491 148.245C380.725 146.399 378.236 145.436 375.024 145.436C371.411 145.436 368.521 146.64 366.353 149.128C364.185 151.615 363.142 154.906 363.142 159.079C363.142 163.172 364.105 166.302 366.112 168.549C368.12 170.796 370.849 171.92 374.382 171.92C377.112 171.92 379.44 171.197 381.287 169.913C383.133 168.629 384.418 166.703 385.141 164.215L384.016 163.814C383.294 165.58 382.25 166.944 380.885 167.907C379.52 168.87 377.834 169.352 375.988 169.352C373.258 169.352 371.17 168.469 369.806 166.703C368.441 164.938 367.718 162.37 367.718 158.919ZM381.046 155.869L367.718 156.35C367.879 153.381 368.601 151.134 369.806 149.529C371.09 147.924 372.857 147.121 375.105 147.121C377.031 147.121 378.477 147.763 379.52 149.208C380.564 150.652 381.046 152.739 381.046 155.468V155.869Z" fill="white"/>
</svg>
